<?xml version="1.0" encoding="UTF-8"?>
<svg width="800" height="800" viewBox="0 0 800 800" fill="none" xmlns="http://www.w3.org/2000/svg">
  <circle cx="400" cy="400" r="380" fill="#1E40AF" opacity="0.1"/>
  <circle cx="400" cy="400" r="300" fill="#1E40AF" opacity="0.2"/>
  <path d="M400 180C278.5 180 180 278.5 180 400C180 521.5 278.5 620 400 620C521.5 620 620 521.5 620 400C620 278.5 521.5 180 400 180Z" fill="#3B82F6"/>
  <path d="M485 280L400 365L315 280L280 315L365 400L280 485L315 520L400 435L485 520L520 485L435 400L520 315L485 280Z" fill="white"/>
  <path d="M290 600H510" stroke="white" stroke-width="12" stroke-linecap="round"/>
  <path d="M270 560H530" stroke="white" stroke-width="12" stroke-linecap="round"/>
  <path d="M230 400L270 400" stroke="white" stroke-width="12" stroke-linecap="round"/>
  <path d="M530 400L570 400" stroke="white" stroke-width="12" stroke-linecap="round"/>
  <path d="M260 320L290 350" stroke="white" stroke-width="12" stroke-linecap="round"/>
  <path d="M510 350L540 320" stroke="white" stroke-width="12" stroke-linecap="round"/>
  <path d="M260 480L290 450" stroke="white" stroke-width="12" stroke-linecap="round"/>
  <path d="M510 450L540 480" stroke="white" stroke-width="12" stroke-linecap="round"/>
  <path d="M250 180H550" stroke="#1E40AF" stroke-width="14" stroke-linecap="round"/>
  <text x="400" y="700" text-anchor="middle" font-family="Arial, sans-serif" font-weight="bold" font-size="60" fill="#1E40AF">EDUPATH MALAYSIA</text>
</svg> 