<?xml version="1.0" encoding="UTF-8"?>
<svg width="800" height="600" viewBox="0 0 800 600" fill="none" xmlns="http://www.w3.org/2000/svg">
  <!-- Background -->
  <rect width="800" height="600" fill="#DBEAFE" opacity="0.3" rx="20"/>
  
  <!-- Platform Frame -->
  <rect x="100" y="80" width="600" height="400" rx="20" fill="white" stroke="#E5E7EB" stroke-width="2"/>
  
  <!-- Header -->
  <rect x="100" y="80" width="600" height="60" rx="20" fill="#3B82F6"/>
  <circle cx="140" cy="110" r="15" fill="white"/>
  <text x="170" y="118" font-family="Arial, sans-serif" font-weight="bold" font-size="18" fill="white">EduPath Malaysia</text>
  
  <!-- Navigation -->
  <rect x="360" y="95" width="80" height="30" rx="15" fill="#2563EB"/>
  <text x="400" y="115" font-family="Arial, sans-serif" font-size="14" text-anchor="middle" fill="white">Explore</text>
  
  <rect x="450" y="95" width="80" height="30" rx="15" fill="#1D4ED8" opacity="0.7"/>
  <text x="490" y="115" font-family="Arial, sans-serif" font-size="14" text-anchor="middle" fill="white">My Path</text>
  
  <rect x="540" y="95" width="80" height="30" rx="15" fill="#1D4ED8" opacity="0.7"/>
  <text x="580" y="115" font-family="Arial, sans-serif" font-size="14" text-anchor="middle" fill="white">Insights</text>
  
  <!-- Sidebar -->
  <rect x="100" y="140" width="150" height="340" fill="#F3F4F6"/>
  
  <!-- Sidebar Items -->
  <rect x="110" y="160" width="130" height="40" rx="8" fill="#EFF6FF"/>
  <text x="140" y="185" font-family="Arial, sans-serif" font-size="14" text-anchor="middle" fill="#1E40AF">Dashboard</text>
  
  <rect x="110" y="210" width="130" height="40" rx="8" fill="#3B82F6"/>
  <text x="140" y="235" font-family="Arial, sans-serif" font-size="14" text-anchor="middle" fill="white">Pathway Visualizer</text>
  
  <rect x="110" y="260" width="130" height="40" rx="8" fill="#EFF6FF"/>
  <text x="140" y="285" font-family="Arial, sans-serif" font-size="14" text-anchor="middle" fill="#1E40AF">Institutions</text>
  
  <rect x="110" y="310" width="130" height="40" rx="8" fill="#EFF6FF"/>
  <text x="140" y="335" font-family="Arial, sans-serif" font-size="14" text-anchor="middle" fill="#1E40AF">Job Market</text>
  
  <rect x="110" y="360" width="130" height="40" rx="8" fill="#EFF6FF"/>
  <text x="140" y="385" font-family="Arial, sans-serif" font-size="14" text-anchor="middle" fill="#1E40AF">TVET Options</text>
  
  <rect x="110" y="410" width="130" height="40" rx="8" fill="#EFF6FF"/>
  <text x="140" y="435" font-family="Arial, sans-serif" font-size="14" text-anchor="middle" fill="#1E40AF">Alumni Stories</text>
  
  <!-- Main Content Area -->
  <rect x="260" y="150" width="430" height="320" rx="8" fill="#FFFFFF" stroke="#E5E7EB" stroke-width="1"/>
  <text x="290" y="180" font-family="Arial, sans-serif" font-weight="bold" font-size="18" fill="#1E40AF">Subject-Career Pathway Visualizer</text>
  
  <!-- Pathway Visualization -->
  <rect x="290" y="200" width="370" height="60" rx="8" fill="#EFF6FF"/>
  <text x="320" y="235" font-family="Arial, sans-serif" font-size="14" fill="#1E40AF">Mathematics</text>
  <path d="M380 230 L420 230" stroke="#3B82F6" stroke-width="2"/>
  <path d="M420 230 L480 200" stroke="#3B82F6" stroke-width="2"/>
  <path d="M420 230 L480 230" stroke="#3B82F6" stroke-width="2"/>
  <path d="M420 230 L480 260" stroke="#3B82F6" stroke-width="2"/>
  <rect x="480" y="185" width="150" height="30" rx="4" fill="#BFDBFE"/>
  <text x="555" y="205" font-family="Arial, sans-serif" font-size="12" text-anchor="middle" fill="#1E40AF">Engineering</text>
  <rect x="480" y="215" width="150" height="30" rx="4" fill="#BFDBFE"/>
  <text x="555" y="235" font-family="Arial, sans-serif" font-size="12" text-anchor="middle" fill="#1E40AF">Computer Science</text>
  <rect x="480" y="245" width="150" height="30" rx="4" fill="#BFDBFE"/>
  <text x="555" y="265" font-family="Arial, sans-serif" font-size="12" text-anchor="middle" fill="#1E40AF">Finance</text>
  
  <rect x="290" y="270" width="370" height="60" rx="8" fill="#EFF6FF"/>
  <text x="320" y="305" font-family="Arial, sans-serif" font-size="14" fill="#1E40AF">Biology</text>
  <path d="M380 300 L420 300" stroke="#3B82F6" stroke-width="2"/>
  <path d="M420 300 L480 270" stroke="#3B82F6" stroke-width="2"/>
  <path d="M420 300 L480 300" stroke="#3B82F6" stroke-width="2"/>
  <path d="M420 300 L480 330" stroke="#3B82F6" stroke-width="2"/>
  <rect x="480" y="255" width="150" height="30" rx="4" fill="#BFDBFE"/>
  <text x="555" y="275" font-family="Arial, sans-serif" font-size="12" text-anchor="middle" fill="#1E40AF">Medicine</text>
  <rect x="480" y="285" width="150" height="30" rx="4" fill="#BFDBFE"/>
  <text x="555" y="305" font-family="Arial, sans-serif" font-size="12" text-anchor="middle" fill="#1E40AF">Biotechnology</text>
  <rect x="480" y="315" width="150" height="30" rx="4" fill="#BFDBFE"/>
  <text x="555" y="335" font-family="Arial, sans-serif" font-size="12" text-anchor="middle" fill="#1E40AF">Environmental Science</text>
  
  <rect x="290" y="340" width="370" height="60" rx="8" fill="#EFF6FF"/>
  <text x="320" y="375" font-family="Arial, sans-serif" font-size="14" fill="#1E40AF">Economics</text>
  <path d="M380 370 L420 370" stroke="#3B82F6" stroke-width="2"/>
  <path d="M420 370 L480 340" stroke="#3B82F6" stroke-width="2"/>
  <path d="M420 370 L480 370" stroke="#3B82F6" stroke-width="2"/>
  <path d="M420 370 L480 400" stroke="#3B82F6" stroke-width="2"/>
  <rect x="480" y="325" width="150" height="30" rx="4" fill="#BFDBFE"/>
  <text x="555" y="345" font-family="Arial, sans-serif" font-size="12" text-anchor="middle" fill="#1E40AF">Business</text>
  <rect x="480" y="355" width="150" height="30" rx="4" fill="#BFDBFE"/>
  <text x="555" y="375" font-family="Arial, sans-serif" font-size="12" text-anchor="middle" fill="#1E40AF">Accounting</text>
  <rect x="480" y="385" width="150" height="30" rx="4" fill="#BFDBFE"/>
  <text x="555" y="405" font-family="Arial, sans-serif" font-size="12" text-anchor="middle" fill="#1E40AF">Economics</text>
  
  <!-- Title -->
  <text x="400" y="520" text-anchor="middle" font-family="Arial, sans-serif" font-weight="bold" font-size="28" fill="#1E40AF">EduPath Malaysia Platform</text>
  <text x="400" y="550" text-anchor="middle" font-family="Arial, sans-serif" font-size="18" fill="#3B82F6">Connecting Education to Careers</text>
</svg> 