<?xml version="1.0" encoding="UTF-8"?>
<svg width="800" height="600" viewBox="0 0 800 600" fill="none" xmlns="http://www.w3.org/2000/svg">
  <!-- Background -->
  <rect width="800" height="600" fill="#F0F9FF" opacity="0.3" rx="20"/>
  
  <!-- Title and Subtitle -->
  <text x="400" y="50" text-anchor="middle" font-family="Arial, sans-serif" font-weight="bold" font-size="28" fill="#0C4A6E">Team Structure</text>
  <text x="400" y="80" text-anchor="middle" font-family="Arial, sans-serif" font-size="18" fill="#0C4A6E">EduPath Malaysia's Organizational Chart</text>
  
  <!-- CEO Box -->
  <rect x="350" y="120" width="100" height="60" rx="5" fill="#0EA5E9" opacity="0.8"/>
  <text x="400" y="145" text-anchor="middle" font-family="Arial, sans-serif" font-weight="bold" font-size="16" fill="white">CEO</text>
  <text x="400" y="165" text-anchor="middle" font-family="Arial, sans-serif" font-size="12" fill="white">Azlan Shah</text>
  
  <!-- Connection Lines from CEO -->
  <line x1="400" y1="180" x2="400" y2="200" stroke="#94A3B8" stroke-width="2"/>
  <line x1="200" y1="200" x2="600" y2="200" stroke="#94A3B8" stroke-width="2"/>
  <line x1="200" y1="200" x2="200" y2="220" stroke="#94A3B8" stroke-width="2"/>
  <line x1="400" y1="200" x2="400" y2="220" stroke="#94A3B8" stroke-width="2"/>
  <line x1="600" y1="200" x2="600" y2="220" stroke="#94A3B8" stroke-width="2"/>
  
  <!-- CTO Box -->
  <rect x="150" y="220" width="100" height="60" rx="5" fill="#0EA5E9" opacity="0.7"/>
  <text x="200" y="245" text-anchor="middle" font-family="Arial, sans-serif" font-weight="bold" font-size="16" fill="white">CTO</text>
  <text x="200" y="265" text-anchor="middle" font-family="Arial, sans-serif" font-size="12" fill="white">Farid Kamal</text>
  
  <!-- Content Director Box -->
  <rect x="350" y="220" width="100" height="60" rx="5" fill="#0EA5E9" opacity="0.7"/>
  <text x="400" y="245" text-anchor="middle" font-family="Arial, sans-serif" font-weight="bold" font-size="16" fill="white">Content Dir.</text>
  <text x="400" y="265" text-anchor="middle" font-family="Arial, sans-serif" font-size="12" fill="white">Dr. Lee Wei</text>
  
  <!-- Business Dev Box -->
  <rect x="550" y="220" width="100" height="60" rx="5" fill="#0EA5E9" opacity="0.7"/>
  <text x="600" y="245" text-anchor="middle" font-family="Arial, sans-serif" font-weight="bold" font-size="16" fill="white">Business Dev</text>
  <text x="600" y="265" text-anchor="middle" font-family="Arial, sans-serif" font-size="12" fill="white">Sarah Ahmad</text>
  
  <!-- Connection Lines from CTO -->
  <line x1="200" y1="280" x2="200" y2="300" stroke="#94A3B8" stroke-width="2"/>
  <line x1="100" y1="300" x2="300" y2="300" stroke="#94A3B8" stroke-width="2"/>
  <line x1="100" y1="300" x2="100" y2="320" stroke="#94A3B8" stroke-width="2"/>
  <line x1="200" y1="300" x2="200" y2="320" stroke="#94A3B8" stroke-width="2"/>
  <line x1="300" y1="300" x2="300" y2="320" stroke="#94A3B8" stroke-width="2"/>
  
  <!-- Frontend Team Box -->
  <rect x="50" y="320" width="100" height="60" rx="5" fill="#38BDF8" opacity="0.7"/>
  <text x="100" y="345" text-anchor="middle" font-family="Arial, sans-serif" font-weight="bold" font-size="16" fill="white">Frontend</text>
  <text x="100" y="365" text-anchor="middle" font-family="Arial, sans-serif" font-size="12" fill="white">3 Developers</text>
  
  <!-- Backend Team Box -->
  <rect x="150" y="320" width="100" height="60" rx="5" fill="#38BDF8" opacity="0.7"/>
  <text x="200" y="345" text-anchor="middle" font-family="Arial, sans-serif" font-weight="bold" font-size="16" fill="white">Backend</text>
  <text x="200" y="365" text-anchor="middle" font-family="Arial, sans-serif" font-size="12" fill="white">3 Developers</text>
  
  <!-- ML/AI Team Box -->
  <rect x="250" y="320" width="100" height="60" rx="5" fill="#38BDF8" opacity="0.7"/>
  <text x="300" y="345" text-anchor="middle" font-family="Arial, sans-serif" font-weight="bold" font-size="16" fill="white">ML/AI</text>
  <text x="300" y="365" text-anchor="middle" font-family="Arial, sans-serif" font-size="12" fill="white">2 Engineers</text>
  
  <!-- Connection Lines from Content Director -->
  <line x1="400" y1="280" x2="400" y2="300" stroke="#94A3B8" stroke-width="2"/>
  <line x1="350" y1="300" x2="450" y2="300" stroke="#94A3B8" stroke-width="2"/>
  <line x1="350" y1="300" x2="350" y2="320" stroke="#94A3B8" stroke-width="2"/>
  <line x1="450" y1="300" x2="450" y2="320" stroke="#94A3B8" stroke-width="2"/>
  
  <!-- Curriculum Team Box -->
  <rect x="300" y="320" width="100" height="60" rx="5" fill="#38BDF8" opacity="0.7"/>
  <text x="350" y="345" text-anchor="middle" font-family="Arial, sans-serif" font-weight="bold" font-size="16" fill="white">Curriculum</text>
  <text x="350" y="365" text-anchor="middle" font-family="Arial, sans-serif" font-size="12" fill="white">4 Educators</text>
  
  <!-- Content Creation Team Box -->
  <rect x="400" y="320" width="100" height="60" rx="5" fill="#38BDF8" opacity="0.7"/>
  <text x="450" y="345" text-anchor="middle" font-family="Arial, sans-serif" font-weight="bold" font-size="16" fill="white">Content</text>
  <text x="450" y="365" text-anchor="middle" font-family="Arial, sans-serif" font-size="12" fill="white">3 Creators</text>
  
  <!-- Connection Lines from Business Dev -->
  <line x1="600" y1="280" x2="600" y2="300" stroke="#94A3B8" stroke-width="2"/>
  <line x1="500" y1="300" x2="700" y2="300" stroke="#94A3B8" stroke-width="2"/>
  <line x1="500" y1="300" x2="500" y2="320" stroke="#94A3B8" stroke-width="2"/>
  <line x1="600" y1="300" x2="600" y2="320" stroke="#94A3B8" stroke-width="2"/>
  <line x1="700" y1="300" x2="700" y2="320" stroke="#94A3B8" stroke-width="2"/>
  
  <!-- Marketing Team Box -->
  <rect x="500" y="320" width="100" height="60" rx="5" fill="#38BDF8" opacity="0.7"/>
  <text x="550" y="345" text-anchor="middle" font-family="Arial, sans-serif" font-weight="bold" font-size="16" fill="white">Marketing</text>
  <text x="550" y="365" text-anchor="middle" font-family="Arial, sans-serif" font-size="12" fill="white">2 Specialists</text>
  
  <!-- Partnerships Team Box -->
  <rect x="600" y="320" width="100" height="60" rx="5" fill="#38BDF8" opacity="0.7"/>
  <text x="650" y="345" text-anchor="middle" font-family="Arial, sans-serif" font-weight="bold" font-size="16" fill="white">Partnerships</text>
  <text x="650" y="365" text-anchor="middle" font-family="Arial, sans-serif" font-size="12" fill="white">2 Managers</text>
  
  <!-- Customer Svc Team Box -->
  <rect x="650" y="320" width="100" height="60" rx="5" fill="#38BDF8" opacity="0.7"/>
  <text x="700" y="345" text-anchor="middle" font-family="Arial, sans-serif" font-weight="bold" font-size="16" fill="white">Customer</text>
  <text x="700" y="365" text-anchor="middle" font-family="Arial, sans-serif" font-size="12" fill="white">Support (2)</text>
  
  <!-- Advisory Board -->
  <rect x="250" y="420" width="300" height="120" rx="10" fill="white" stroke="#0EA5E9" stroke-width="1.5"/>
  <text x="400" y="445" text-anchor="middle" font-family="Arial, sans-serif" font-weight="bold" font-size="18" fill="#0C4A6E">Advisory Board</text>
  
  <!-- Advisor 1 -->
  <circle cx="310" cy="480" r="25" fill="#0EA5E9" opacity="0.2"/>
  <text x="310" y="485" text-anchor="middle" font-family="Arial, sans-serif" font-weight="bold" font-size="14" fill="#0C4A6E">Prof. Tan</text>
  <text x="310" y="500" text-anchor="middle" font-family="Arial, sans-serif" font-size="10" fill="#0C4A6E">Education</text>
  
  <!-- Advisor 2 -->
  <circle cx="400" cy="480" r="25" fill="#0EA5E9" opacity="0.2"/>
  <text x="400" y="485" text-anchor="middle" font-family="Arial, sans-serif" font-weight="bold" font-size="14" fill="#0C4A6E">Ms. Wong</text>
  <text x="400" y="500" text-anchor="middle" font-family="Arial, sans-serif" font-size="10" fill="#0C4A6E">EdTech</text>
  
  <!-- Advisor 3 -->
  <circle cx="490" cy="480" r="25" fill="#0EA5E9" opacity="0.2"/>
  <text x="490" y="485" text-anchor="middle" font-family="Arial, sans-serif" font-weight="bold" font-size="14" fill="#0C4A6E">Mr. Lim</text>
  <text x="490" y="500" text-anchor="middle" font-family="Arial, sans-serif" font-size="10" fill="#0C4A6E">Finance</text>
  
  <!-- Team Growth Plans -->
  <rect x="100" y="420" width="140" height="80" rx="5" fill="#0EA5E9" opacity="0.1"/>
  <text x="170" y="440" text-anchor="middle" font-family="Arial, sans-serif" font-weight="bold" font-size="14" fill="#0C4A6E">Year 1 Team Size</text>
  <text x="170" y="465" text-anchor="middle" font-family="Arial, sans-serif" font-size="16" fill="#0C4A6E">24 Full-Time</text>
  <text x="170" y="485" text-anchor="middle" font-family="Arial, sans-serif" font-size="12" fill="#0C4A6E">+5 Part-Time</text>
  
  <!-- Team Growth Plans -->
  <rect x="560" y="420" width="140" height="80" rx="5" fill="#0EA5E9" opacity="0.1"/>
  <text x="630" y="440" text-anchor="middle" font-family="Arial, sans-serif" font-weight="bold" font-size="14" fill="#0C4A6E">Year 3 Projection</text>
  <text x="630" y="465" text-anchor="middle" font-family="Arial, sans-serif" font-size="16" fill="#0C4A6E">45+ Full-Time</text>
  <text x="630" y="485" text-anchor="middle" font-family="Arial, sans-serif" font-size="12" fill="#0C4A6E">+10 Part-Time</text>
  
  <!-- Key Skills -->
  <rect x="100" y="520" width="600" height="60" rx="5" fill="white" stroke="#0EA5E9" stroke-width="1.5"/>
  <text x="400" y="540" text-anchor="middle" font-family="Arial, sans-serif" font-weight="bold" font-size="16" fill="#0C4A6E">Core Team Expertise</text>
  <text x="400" y="565" text-anchor="middle" font-family="Arial, sans-serif" font-size="14" fill="#64748b">Education • EdTech • Software Development • Data Science • UX Design • Curriculum Development</text>
</svg> 